[img]http://img18.imageshack.us/img18/3636/928db5331769006e329b102.png[/img]
[code]
Plot:
As a CIA officer, Evelyn Salt swore an oath to duty, honor and country. Her loyalty will be tested when a defector accuses her of being a Russian spy. Salt goes on the run, using all her skills and years of experience as a covert operative to elude capture. Salt's efforts to prove her innocence only serve to cast doubt on her motives, as the hunt to uncover the truth behind her identity continues and the question remains: "Who is Salt?"
 
http://www.imdb.com/title/tt0944835/

Sources
Audio                            : TA's Kracker (Thanks)
Video                            : Relizlab

Complete name                    : Salt.2010.TS.READ.NFO.XViD-TA.avi
Format                           : AVI
Format/Info                      : Audio Video Interleave
File size                        : 705 MiB
Duration                         : 1h 30mn
Overall bit rate                 : 1 085 Kbps
Writing library                  : VirtualDub build 32661/release

Video
ID                               : 0
Format                           : MPEG-4 Visual
Format profile                   : AdvancedSimple@L5
Format settings, BVOP            : Yes
Format settings, QPel            : No
Format settings, GMC             : No warppoints
Format settings, Matrix          : Default (H.263)
Muxing mode                      : Packed bitstream
Codec ID                         : XVID
Codec ID/Hint                    : XviD
Duration                         : 1h 30mn
Bit rate                         : 948 Kbps
Width                            : 640 pixels
Height                           : 256 pixels
Display aspect ratio             : 2.500
Frame rate                       : 25.000 fps
Resolution                       : 24 bits
Colorimetry                      : 4:2:0
Scan type                        : Progressive
Bits/(Pixel*Frame)               : 0.231
Stream size                      : 615 MiB (87%)
Writing library                  : XviD 1.2.1 (UTC 2008-12-04)

Audio
ID                               : 1
Format                           : MPEG Audio
Format version                   : Version 1
Format profile                   : Layer 3
Codec ID                         : 55
Codec ID/Hint                    : MP3
Duration                         : 1h 30mn
Bit rate mode                    : Constant
Bit rate                         : 128 Kbps
Channel(s)                       : 2 channels
Sampling rate                    : 44.1 KHz
Resolution                       : 16 bits
Stream size                      : 83.1 MiB (12%)
Alignment                        : Split accross interleaves
Interleave, duration             : 40 ms (1.00 video frame)
Interleave, preload duration     : 500 ms
Writing library                  : LAME3.98.2

Notes: ok.... THANKS to LU for syncing this audio for us. We used the CAM audio from Hogs for the missing parts. Had it not been for circumstances beyond my control this would have been released more than 24 hrs ago.

NEEDS: We are looking for Audio Syncers and any other Exclusive CAM sources. Both Audio and Video
All deotting done by "dedots crew" find us on irc Efnet channel #ddcrew

Contact us: ta_rg@hushmail.com

Greetz: IMAGiNE - PrisM - KINGDOM - LU - SLUGGER - Relizlab - ELEKTRI4KA
and all those that contribute... Spanks
[/code]
Screens:
[img]http://img713.imageshack.us/img713/7126/nmxk04.png[/img]
[img]http://img814.imageshack.us/img814/1903/24m6l1g.png[/img]
[img]http://img43.imageshack.us/img43/8118/atq1zo.png[/img]
[img]http://img685.imageshack.us/img685/8453/2ikdx8o.png[/img]